<mxfile host="app.diagrams.net" modified="2021-07-16T03:11:34.604Z" agent="5.0 (Windows NT 10.0; Win64; x64) AppleWebKit/537.36 (KHTML, like Gecko) Chrome/91.0.4472.124 Safari/537.36" etag="yFFsfiSITG-fx5EbUaac" version="14.8.5" type="github">
  <diagram id="FJT3EdVLjgwq2iVrfuaf" name="Page-1">
    <mxGraphModel dx="868" dy="450" grid="1" gridSize="10" guides="1" tooltips="1" connect="1" arrows="1" fold="1" page="1" pageScale="1" pageWidth="850" pageHeight="1100" math="0" shadow="0">
      <root>
        <mxCell id="0" />
        <mxCell id="1" parent="0" />
        <mxCell id="MxKaTCPz04sXQIFcnDnJ-2" value="" style="edgeStyle=orthogonalEdgeStyle;rounded=0;orthogonalLoop=1;jettySize=auto;html=1;" edge="1" parent="1" source="MxKaTCPz04sXQIFcnDnJ-3" target="MxKaTCPz04sXQIFcnDnJ-9">
          <mxGeometry relative="1" as="geometry" />
        </mxCell>
        <mxCell id="MxKaTCPz04sXQIFcnDnJ-3" value="User" style="rounded=1;whiteSpace=wrap;html=1;" vertex="1" parent="1">
          <mxGeometry x="80" y="120" width="120" height="60" as="geometry" />
        </mxCell>
        <mxCell id="MxKaTCPz04sXQIFcnDnJ-4" style="edgeStyle=orthogonalEdgeStyle;rounded=0;orthogonalLoop=1;jettySize=auto;html=1;entryX=0.5;entryY=0;entryDx=0;entryDy=0;" edge="1" parent="1" source="MxKaTCPz04sXQIFcnDnJ-5" target="MxKaTCPz04sXQIFcnDnJ-9">
          <mxGeometry relative="1" as="geometry" />
        </mxCell>
        <mxCell id="MxKaTCPz04sXQIFcnDnJ-5" value="User" style="rounded=1;whiteSpace=wrap;html=1;" vertex="1" parent="1">
          <mxGeometry x="80" y="210" width="120" height="60" as="geometry" />
        </mxCell>
        <mxCell id="MxKaTCPz04sXQIFcnDnJ-6" style="edgeStyle=orthogonalEdgeStyle;rounded=0;orthogonalLoop=1;jettySize=auto;html=1;entryX=0.5;entryY=0;entryDx=0;entryDy=0;" edge="1" parent="1" source="MxKaTCPz04sXQIFcnDnJ-7" target="MxKaTCPz04sXQIFcnDnJ-9">
          <mxGeometry relative="1" as="geometry" />
        </mxCell>
        <mxCell id="MxKaTCPz04sXQIFcnDnJ-7" value="User" style="rounded=1;whiteSpace=wrap;html=1;" vertex="1" parent="1">
          <mxGeometry x="80" y="330" width="120" height="60" as="geometry" />
        </mxCell>
        <mxCell id="MxKaTCPz04sXQIFcnDnJ-8" value="..." style="text;html=1;strokeColor=none;fillColor=none;align=center;verticalAlign=middle;whiteSpace=wrap;rounded=0;rotation=-90;" vertex="1" parent="1">
          <mxGeometry x="120" y="290" width="40" height="20" as="geometry" />
        </mxCell>
        <mxCell id="MxKaTCPz04sXQIFcnDnJ-9" value="LB" style="rounded=1;whiteSpace=wrap;html=1;rotation=-90;" vertex="1" parent="1">
          <mxGeometry x="155" y="225" width="270" height="60" as="geometry" />
        </mxCell>
      </root>
    </mxGraphModel>
  </diagram>
</mxfile>
